<?xml version="1.0" encoding="iso-8859-1"?>
<!-- Generator: Adobe Illustrator 16.0.0, SVG Export Plug-In . SVG Version: 6.00 Build 0)  -->
<!DOCTYPE svg PUBLIC "-//W3C//DTD SVG 1.1//EN" "http://www.w3.org/Graphics/SVG/1.1/DTD/svg11.dtd">
<svg version="1.1" id="Layer_1" xmlns="http://www.w3.org/2000/svg" xmlns:xlink="http://www.w3.org/1999/xlink" x="0px" y="0px"
	 width="512px" height="512px" viewBox="0 0 512 512" style="enable-background:new 0 0 512 512;" xml:space="preserve" fill="#aaaaaa">
<g>
	<g>
		<defs>
			<rect id="SVGID_1_" x="6.065" y="76.85" width="506.899" height="357.29"/>
		</defs>
		<clipPath id="SVGID_2_">
			<use xlink:href="#SVGID_1_"  style="overflow:visible;"/>
		</clipPath>
		<path style="clip-path:url(#SVGID_2_);" d="M120.554,275.551c7.042-7.063,12.735-10.654,19.641-12.235
			c19.785-4.528,35.276,5.282,38.451,25.417c2.844,18.044,0.638,36.326,1.18,54.494c0.181,6.048-3.841,6.003-8.224,6.121
			c-4.733,0.128-7.944-0.722-7.89-6.47c0.119-12.863,0.011-25.729-0.07-38.593c-0.02-3.134-0.171-6.278-0.473-9.397
			c-0.87-8.976-3.692-16.76-13.702-19.019c-9.755-2.202-19.371,2.747-24.332,11.999c-3.84,7.161-4.387,14.986-4.528,22.833
			c-0.187,10.352-0.313,20.718,0.029,31.061c0.218,6.592-3.003,7.613-8.66,7.672c-6.082,0.063-7.337-2.6-7.314-7.981
			c0.15-36.083,0.158-72.168-0.004-108.251c-0.026-5.682,1.134-8.493,7.722-8.65c7.186-0.171,8.354,3.12,8.247,9.085
			C120.391,246.729,120.554,259.827,120.554,275.551"/>
		<path style="clip-path:url(#SVGID_2_);" d="M68.456,351.304c-28.361,0.059-49.029-12.528-57.79-35.197
			c-9.428-24.396-4.113-52.646,13.643-68.715c18.437-16.688,40.279-18.582,63.453-13.04c8.588,2.054,5.648,8.782,4.723,13.763
			c-1.177,6.339-5.445,1.833-8.003,0.988c-19.133-6.316-39.067-1.41-50.537,12.732c-12.069,14.88-13.361,37.898-3.074,54.75
			c9.818,16.082,28.59,23.229,49.301,18.752c1.223-0.265,2.514-1.138,3.605-0.912c3.129,0.646,8.2-6.201,9.272,1.891
			c0.739,5.579,2.557,12.097-6.85,13.385C80.279,350.511,74.408,351.169,68.456,351.304"/>
		<path style="clip-path:url(#SVGID_2_);" d="M237.627,310.764c-7.526,0.002-15.074,0.352-22.574-0.098
			c-7.322-0.438-7.686,3.044-6.009,8.607c4.142,13.746,17.696,21.301,33.738,18.457c3.357-0.596,6.524-2.262,9.881-2.871
			c2.787-0.506,6.69-5.68,8.206-0.363c1.214,4.257,3.105,10.331-4.342,13.389c-17.917,7.354-43.27,3.647-54.65-8.687
			c-12.021-13.028-14.625-39.732-5.532-56.74c7.685-14.373,23.473-22.016,40.489-19.599c16.059,2.281,26.785,12.287,29.474,29.701
			c3.377,21.862,3.859,17.915-14.568,18.191C247.037,310.823,242.332,310.763,237.627,310.764 M229.617,298.66
			c5.338,0,10.684-0.162,16.014,0.05c4.568,0.182,6.06-1.109,4.925-6.005c-2.198-9.478-8.641-16.088-17.662-17.035
			c-10.262-1.076-18.467,3.757-22.561,13.289c-3.62,8.432-2.887,9.616,6.094,9.698C220.823,298.697,225.22,298.664,229.617,298.66"
			/>
		<path style="clip-path:url(#SVGID_2_);" d="M364.759,306.233c0,13.865-0.223,24.854,0.088,35.828
			c0.171,6.068-2.688,7.237-8.031,7.343c-5.685,0.112-7.737-1.719-7.707-7.52c0.185-36.412,0.149-72.827,0.028-109.241
			c-0.018-5.227,0.983-8.157,7.219-8.026c5.744,0.12,8.613,1.311,8.52,7.86c-0.308,21.284-0.115,42.574-0.115,65.955
			c8.671-8.699,16.688-15.593,23.275-23.654c7.649-9.361,16.555-12.624,28.213-9.466c1.398,3.487-2.025,4.707-3.799,6.443
			c-8.971,8.783-17.999,17.518-27.293,25.955c-3.629,3.295-3.752,5.441-0.26,9.024c11.39,11.688,22.449,23.698,33.567,35.649
			c1.403,1.509,3.896,2.933,2.853,5.413c-1.1,2.614-3.863,1.097-5.876,1.448c-9.235,1.613-15.786-1.793-21.591-9.339
			C385.337,328.841,375.631,318.692,364.759,306.233"/>
		<path style="clip-path:url(#SVGID_2_);" d="M317.503,351.396c-16.786-0.271-30.676-8.168-37.865-25.194
			c-7.346-17.395-6.097-34.705,6.493-49.412c12.025-14.047,28.056-16.299,45.533-12.583c6.614,1.405,5.423,5.861,4.904,10.112
			c-0.757,6.199-5.029,3.019-7.879,2.444c-14.135-2.854-23.943,0.349-30.707,10.326c-7.639,11.27-7.402,29.928,0.519,40.913
			c6.729,9.334,17.68,12.528,31.226,9.071c3.109-0.795,6.896-3.658,7.86,2.268c0.7,4.292,1.78,8.773-4.544,10.464
			C328.398,351.047,323.767,351.12,317.503,351.396"/>
		<path style="clip-path:url(#SVGID_2_);" d="M8.231,88.421c0.53-0.131,1.065-0.161,1.605-0.091
			c0.048,37.114,0.096,74.228,0.144,111.342c-0.584-0.002-1.167-0.019-1.75-0.05V88.421z"/>
		<path style="clip-path:url(#SVGID_2_);" d="M9.981,199.673C9.933,162.559,9.885,125.444,9.837,88.33
			c11.898-6.138,16.744-3.487,16.767,9.196c0.018,10.036,0.215,20.079-0.079,30.106c-0.144,4.901,1.49,6.567,6.438,6.473
			c14.108-0.267,28.228-0.258,42.337-0.003c4.856,0.088,6.583-1.395,6.448-6.383c-0.314-11.596,0.209-23.217-0.216-34.807
			c-0.232-6.335,2.934-7.227,8.026-7.202c5.211,0.025,9.039,0.368,8.987,7.394c-0.25,33.872-0.229,67.746-0.026,101.618
			c0.044,7.256-4.307,6.814-9.278,7.041c-5.631,0.257-7.843-1.67-7.692-7.52c0.332-12.851-0.134-25.722,0.211-38.572
			c0.144-5.362-1.556-7.017-6.902-6.887c-13.792,0.334-27.602,0.331-41.395,0.003c-5.352-0.127-7.12,1.569-6.958,6.924
			c0.34,11.281,0.112,22.579,0.099,33.87C26.589,202.896,23.438,204.804,9.981,199.673"/>
		<path style="clip-path:url(#SVGID_2_);" d="M331.172,192.178c-6.55,4.37-11.13,8.078-17.019,9.815
			c-18.373,5.42-35.045-1.835-42.894-19.189c-5.207-11.515-6.389-23.698-3.984-35.924c6.268-31.887,36.851-42.42,63.603-20.324
			c0-14.458,0.24-27.676-0.104-40.878c-0.167-6.447,1.927-8.752,8.616-8.809c7.701-0.066,7.689,4.276,7.679,9.708
			c-0.07,34.843,0.028,69.687-0.127,104.53c-0.018,3.896,2.192,9.542-4.669,10.4C336.291,202.256,330.514,202.118,331.172,192.178
			 M283.305,158.56c-0.438,7.954,1.329,15.181,5.437,21.75c8.347,13.351,26.197,13.98,35.565,1.315
			c8.675-11.728,8.753-32.694,0.165-44.411c-10.545-14.388-30.956-12.212-38.224,4.09
			C283.771,146.862,282.946,152.724,283.305,158.56"/>
		<path style="clip-path:url(#SVGID_2_);" d="M151.847,203.73c-24.738-0.235-43.393-19.775-42.943-44.983
			c0.472-26.49,18.417-44.153,44.653-43.948c24.545,0.191,42.415,18.781,42.531,44.245
			C196.204,184.723,177.149,203.97,151.847,203.73 M178.06,159.635c0-0.937,0.026-1.875-0.004-2.812
			c-0.506-15.622-10.744-27.896-24.013-28.8c-13.05-0.889-25.073,10.083-27.065,24.7c-2.46,18.055,5.839,34.154,19.235,37.26
			c0.904,0.209,1.862,0.19,2.794,0.277C166.601,191.91,178.064,179.849,178.06,159.635"/>
		<path style="clip-path:url(#SVGID_2_);" d="M415.621,190.848c-10.647,11.887-21.981,13.979-34.367,12.469
			c-12.688-1.547-20.742-8.738-22.789-20.158c-2.277-12.71,2.757-22.771,14.531-28.58c10.132-4.998,21.055-5.557,32.098-5.394
			c9.217,0.136,10.154-1.486,6.928-10.394c-2.597-7.167-8.111-9.982-15.104-10.719c-7.346-0.774-14.316,0.772-21.031,3.736
			c-2.464,1.087-5.611,3.41-7.165-0.447c-1.323-3.283-2.571-7.685,1.863-9.989c13.693-7.114,27.982-9.056,42.568-3.129
			c12.62,5.127,15.761,16.329,16.181,28.391c0.534,15.339,0.289,30.705,0.428,46.059c0.039,4.415,0.965,8.856-5.979,9.185
			C417.229,202.187,414.308,199.868,415.621,190.848 M402.482,161.445c-7.238,0.126-14.392,0.582-20.86,4.414
			c-4.788,2.836-7.035,7.031-6.689,12.499c0.328,5.179,3.252,8.636,7.857,10.805c12.095,5.695,27.667-1.89,30.395-14.814
			C415.561,163.087,414.028,161.238,402.482,161.445"/>
		<path style="clip-path:url(#SVGID_2_);" d="M475.329,186.659c7.54-22.578,14.21-42.412,20.76-62.285
			c1.318-3.999,2.257-7.487,7.796-7.709c9.762-0.39,10.62,0.378,7.392,9.479c-14.142,39.862-28.216,79.749-42.534,119.547
			c-1.079,2.998-0.403,10.126-6.283,7.156c-4.687-2.367-12.336-5.135-8.234-14.115c3.639-7.965,6.127-16.449,9.626-24.485
			c2.67-6.131,2.703-11.674,0.286-18.032c-8.685-22.841-16.969-45.838-24.994-68.919c-1.055-3.032-6.152-7.258-0.365-10.202
			c6.171-3.14,13.892,0.289,15.908,6.421c5.776,17.561,11.403,35.17,17.104,52.756C472.646,178.916,473.58,181.535,475.329,186.659"
			/>
		<path style="clip-path:url(#SVGID_2_);" d="M206.35,139.33c-0.005-17.888,0.198-35.779-0.112-53.662
			c-0.112-6.446,1.901-8.847,8.602-8.818c6.663,0.028,7.798,3.127,7.781,8.7c-0.114,36.403-0.149,72.807,0.042,109.209
			c0.028,5.291-1.48,7.359-6.915,6.974c-4.811-0.341-9.56,0.529-9.469-6.856C206.508,176.363,206.355,157.846,206.35,139.33"/>
		<path style="clip-path:url(#SVGID_2_);" d="M255.203,159.987c0.002,11.904-0.151,23.812,0.083,35.711
			c0.086,4.365-1.143,6.546-5.763,5.878c-3.89-0.563-9.679,2.033-9.708-5.248c-0.098-24.748-0.059-49.496-0.021-74.245
			c0.01-6.432,4.877-5.106,8.786-5.356c4.773-0.304,6.76,1.722,6.683,6.607C255.07,135.55,255.2,147.769,255.203,159.987"/>
		<path style="clip-path:url(#SVGID_2_);" d="M247.353,97.759c-6.879,1.546-9.057-0.774-9.205-7.619
			c-0.173-8.016,2.68-10.185,10.325-10.156c6.756,0.026,8.435,2.271,8.303,8.669C256.629,95.753,255.04,99.938,247.353,97.759"/>
		<path style="clip-path:url(#SVGID_2_);" d="M71.132,390.922c-4.392-0.14-8.813-0.517-13.172-0.169
			c-4.521,0.361-7.046-1.624-8.619-5.494c-1.537-4.704-2.767-9.54-4.698-14.076c-1.82-4.275-4.518-4.197-6.248,0.142
			c-2.065,5.178-3.665,10.541-5.467,15.824c-1.638,3.49-4.849,3.52-8.053,3.532c-6.246,0.024-12.241,0.128-18.811,0.197v3.77
			c5.054,3.753,10.265,7.505,15.36,11.257c6.16,7.068-0.444,13.345-1.254,19.97c-0.326,2.663-2.518,5.826,0.245,7.703
			c2.305,1.566,4.853-0.974,6.477-2.592c9.943-9.911,19.644-9.723,29.389,0.157c0.216,0.22,0.48,0.416,0.757,0.55
			c1.866,0.905,3.491,3.41,5.795,1.94c2.971-1.895,0.404-4.423,0.194-6.706c-0.636-6.894-6.806-13.051-2.745-20.565
			c5.465-1.324,8.544-6.151,13.044-8.904c1.597-0.979,3.228-2.405,2.569-4.555C75.194,390.619,72.943,390.979,71.132,390.922"/>
		<path style="clip-path:url(#SVGID_2_);" d="M324.069,390.748c-4.874-1.451-11.241,3.23-14.781-3.596
			c-1.707-4.971-3.437-9.934-5.11-14.914c-0.604-1.794-1.119-3.737-3.378-3.897c-2.372-0.17-3.088,1.896-3.671,3.578
			c-1.718,4.97-3.227,10.011-4.817,15.025c-1.88,3.593-5.204,3.402-8.652,3.864c-5.813,0.779-15.517-2.963-16.527,2.596
			c-1.031,5.676,8.462,9.129,13.931,12.888c0.215,0.148,0.606,0.039,0.917,0.05c3.873,7.214-1.983,13.144-2.588,19.763
			c-0.232,2.542-3.442,5.479,0.083,7.54c2.598,1.52,4.882-1.057,6.474-2.668c10.035-10.155,19.769-9.479,29.532,0.263
			c0.436,0.435,1.007,0.75,1.555,1.049c1.602,0.871,3.32,2.646,5.071,1.256c1.588-1.258,0.983-3.505,0.527-5.323
			c-1.664-6.637-4.709-12.919-5.085-19.887c3.299-2.31,6.802-4.381,9.835-6.996c2.932-2.528,8.872-4.294,7.618-8.329
			C333.645,388.649,327.76,391.847,324.069,390.748"/>
		<path style="clip-path:url(#SVGID_2_);" d="M243.488,390.893c-6.756-0.801-13.804,1.372-20.31-1.989
			c-1.857-5.629-3.699-11.264-5.579-16.886c-0.601-1.799-1.277-3.721-3.627-3.662c-2.363,0.06-2.915,2.199-3.536,3.872
			c-2.067,5.568-3.954,11.205-5.91,16.814c-2.621,2.437-5.937,1.128-8.906,1.687c-5.298,0.996-13.866-2.647-15.241,2.469
			c-1.443,5.37,7.029,7.839,11.723,11.376h0.001c1.616,2.021,5.148,3.553,5.183,7.186c-1.644,5.376-3.305,10.697-4.924,16.081
			c-0.603,2.002-2.136,4.227,0.414,5.838c1.961,1.239,3.788-0.276,5.005-1.491c10.909-10.893,21.7-11.308,32.547,0.012
			c0.207,0.217,0.556,0.285,0.809,0.467c1.306,0.939,3.038,2.017,4.215,0.921c0.874-0.813,1.144-2.966,0.791-4.284
			c-1.445-5.406-2.291-11.045-5.379-15.901c-0.589-3.323,1.406-5.453,3.482-7.546c3.782-2.745,7.642-5.39,11.307-8.282
			c1.568-1.236,4.231-2.307,2.961-5.093C247.557,390.383,245.272,391.104,243.488,390.893"/>
		<path style="clip-path:url(#SVGID_2_);" d="M417.705,392.883c-1.22-4.406-8.348-0.96-12.635-2.186
			c-4.27-1.221-10.15,3.276-12.839-3.546c-1.705-4.973-3.433-9.938-5.106-14.922c-0.604-1.797-1.131-3.739-3.389-3.894
			c-2.371-0.164-3.083,1.904-3.661,3.59c-1.707,4.975-3.206,10.021-4.786,15.04c-5.439,7.027-13.189,2.389-19.724,3.897
			c-2.21,0.511-5.435-1.063-6.275,2.233c-0.762,2.983,2.176,4.015,4.09,5.409c1.203,0.878,2.657,2.024,3.999,2.024h0.005
			c1.993,5.56,8.737,5.275,9.437,11.031c-1.486,4.77-3.186,9.525-4.37,14.368c-0.601,2.458-3.447,5.479-0.16,7.628
			c2.557,1.672,4.872-0.893,6.481-2.487c9.933-9.849,19.662-9.968,29.484,0.033c0.215,0.22,0.496,0.391,0.771,0.534
			c1.873,0.977,3.694,3.358,5.837,1.968c2.105-1.367,1.156-4.029,0.526-6.053c-1.663-5.342-3.538-10.616-5.328-15.918
			c0.554-4.933,6.072-5.544,8.043-9.242C412.271,399.975,418.985,397.504,417.705,392.883"/>
		<path style="clip-path:url(#SVGID_2_);" d="M154.052,390.888c-3.104-0.346-6.324-0.602-9.384-0.152
			c-4.818,0.708-6.574-1.986-7.741-5.796c-1.974-5.842-1.797-15.53-7.897-15.749c-5.467-0.195-5.13,9.773-7.579,15.15
			c-0.116,0.255-0.021,0.607-0.025,0.914c-1.936,4.012-4.813,5.99-9.568,5.521c-4.029-0.398-8.142,0.009-12.215,0.143
			c-1.811,0.06-4.054-0.313-4.781,1.953c-0.695,2.163,0.994,3.493,2.539,4.572c1.777,1.242,3.695,2.282,5.552,3.41
			c3.23,2.965,6.462,5.93,9.693,8.896c-1.558,5.392-3.32,10.736-4.581,16.197c-0.569,2.46-3.392,5.464-0.145,7.623
			c2.575,1.711,4.843-0.9,6.459-2.473c9.889-9.623,19.598-10.222,29.437-0.051c0.426,0.44,0.98,0.794,1.533,1.068
			c1.619,0.806,3.25,2.753,5.059,1.527c2.173-1.472,1.203-4.007,0.637-6.012c-1.692-5.999-3.596-11.938-5.417-17.902
			c3.453-3.024,6.906-6.049,10.356-9.075c3.271-2.073,8.727-3.465,7.467-8.022C162.482,389.131,157.324,391.252,154.052,390.888"/>
	</g>
</g>
</svg>
