<?xml version="1.0" encoding="utf-8"?>
<!-- Generator: Adobe Illustrator 16.0.0, SVG Export Plug-In . SVG Version: 6.00 Build 0)  -->
<!DOCTYPE svg PUBLIC "-//W3C//DTD SVG 1.1//EN" "http://www.w3.org/Graphics/SVG/1.1/DTD/svg11.dtd">
<svg version="1.1" id="Capa_1" xmlns="http://www.w3.org/2000/svg" xmlns:xlink="http://www.w3.org/1999/xlink" x="0px" y="0px"
	 width="430.113px" height="430.113px" viewBox="0 0 430.113 430.113" enable-background="new 0 0 430.113 430.113"
	 xml:space="preserve">
<path d="M356.207,107.051c-1.53-5.738-4.64-11.853-6.939-17.205C321.745,23.704,261.611,0,213.055,0
	C148.054,0,76.463,43.586,66.905,133.427v18.354c0,0.767,0.265,7.647,0.64,11.09c5.357,42.815,39.143,88.319,64.375,131.136
	c27.146,45.873,55.313,90.999,83.221,136.105c17.208-29.436,34.354-59.259,51.17-87.933c4.583-8.415,9.903-16.825,14.491-24.856
	c3.058-5.349,8.9-10.696,11.569-15.673c27.145-49.698,70.837-99.781,70.837-149.104v-20.262
	C363.209,126.938,356.58,108.204,356.207,107.051z"/>
</svg>
